<?xml version="1.0" ?>
<svg id="analysis" xmlns="http://www.w3.org/2000/svg" width="39.28" height="39.281" viewBox="0 0 39.28 39.281">
  <path id="Path_45" data-name="Path 45" d="M27.63,41.779a4.392,4.392,0,0,0-.21-1.416h-2.78a.7.7,0,0,1-.7-.7V36.943a7.982,7.982,0,0,1-1.029-.426l-1.922,1.922a.7.7,0,0,1-.746.157l-.511,5.274-6.907,1.4L5.676,38.125l-.1.081A11.318,11.318,0,0,0,20.763,52.184L22.27,53.69H36.563L27.3,44.431A11.323,11.323,0,0,0,27.63,41.779Z" transform="translate(-4.297 -14.409)" fill="#39b54a"/>
  <path id="Path_46" data-name="Path 46" d="M15.893,43.595a.7.7,0,0,1-.5-.205l-2.1-2.1.992-.992,1.824,1.824,2.421-.605.339,1.361-2.806.7A.7.7,0,0,1,15.893,43.595Z" transform="translate(-6.775 -15.537)" fill="#39b54a"/>
  <rect id="Rectangle_17" data-name="Rectangle 17" width="1.403" height="1.984" transform="translate(4.415 23.644) rotate(-45)" fill="#39b54a"/>
  <circle id="Ellipse_17" data-name="Ellipse 17" cx="3.507" cy="3.507" r="3.507" transform="translate(18.588 11.574)" fill="#39b54a"/>
  <path id="Path_47" data-name="Path 47" d="M27.364,28.133a.7.7,0,0,1,.853-.108,6.478,6.478,0,0,0,1.674.693.7.7,0,0,1,.526.679v2.541h2.1V29.4a.7.7,0,0,1,.526-.679,6.478,6.478,0,0,0,1.674-.693.7.7,0,0,1,.853.108l1.8,1.8,1.559-1.559-1.8-1.8a.7.7,0,0,1-.108-.853,6.443,6.443,0,0,0,.692-1.674.7.7,0,0,1,.68-.527h2.541v-2.1H38.4a.7.7,0,0,1-.68-.527,6.443,6.443,0,0,0-.692-1.674.7.7,0,0,1,.108-.853l1.8-1.8-1.559-1.559-1.8,1.8a.7.7,0,0,1-.853.108,6.478,6.478,0,0,0-1.674-.693.7.7,0,0,1-.526-.679V13h-2.1v2.541a.7.7,0,0,1-.526.679,6.478,6.478,0,0,0-1.674.693.7.7,0,0,1-.853-.108l-1.8-1.8-1.559,1.559,1.8,1.8a.7.7,0,0,1,.108.853,6.443,6.443,0,0,0-.692,1.674.7.7,0,0,1-.68.527H22v2.1h2.541a.7.7,0,0,1,.68.527,6.443,6.443,0,0,0,.692,1.674.7.7,0,0,1-.108.853l-1.8,1.8,1.559,1.559Zm4.105-10.574a4.91,4.91,0,1,1-4.91,4.91,4.91,4.91,0,0,1,4.91-4.91Z" transform="translate(-9.374 -7.388)" fill="#39b54a"/>
  <path id="Path_48" data-name="Path 48" d="M36.266,9.91h-.428a.7.7,0,0,1-.661-.468A6.654,6.654,0,0,0,22.85,8.885a.7.7,0,0,1-1.136.2,6.664,6.664,0,0,0-11.4,4.683v2.455a.7.7,0,0,1-.7.7h-2.1a3.507,3.507,0,1,0,0,7.014H18.694l.374-.375a7.831,7.831,0,0,1-.425-1.028H15.924a.7.7,0,0,1-.7-.7V18.327a.7.7,0,0,1,.7-.7h2.719a7.831,7.831,0,0,1,.425-1.028l-1.922-1.923a.7.7,0,0,1,0-.992l2.551-2.55a.7.7,0,0,1,.992,0l1.922,1.922a7.982,7.982,0,0,1,1.029-.426V9.91a.7.7,0,0,1,.7-.7h3.507a.7.7,0,0,1,.7.7v2.719a7.983,7.983,0,0,1,1.029.426L31.5,11.132a.7.7,0,0,1,.992,0l2.551,2.55a.7.7,0,0,1,0,.992L33.122,16.6a7.83,7.83,0,0,1,.425,1.028h2.719a.7.7,0,0,1,.7.7v3.507a.7.7,0,0,1-.7.7H33.547a7.83,7.83,0,0,1-.425,1.028l.374.375h2.77a7.014,7.014,0,1,0,0-14.029Zm4.209,9.119h-1.4v-1.4h1.4Zm-1.4-2.806a2.806,2.806,0,0,0-2.806-2.806v-1.4a4.213,4.213,0,0,1,4.209,4.209Z" transform="translate(-4 -4.999)" fill="#39b54a"/>
</svg>
