<svg xmlns="http://www.w3.org/2000/svg" width="63.045" height="63.044" viewBox="0 0 63.045 63.044">
  <g id="Group_129" data-name="Group 129" transform="translate(-5921.18 -19049.941)">
    <path id="Path_45" data-name="Path 45" d="M41.324,44.963a7.049,7.049,0,0,0-.338-2.273H36.523A1.126,1.126,0,0,1,35.4,41.564V37.2a12.811,12.811,0,0,1-1.652-.683L30.661,39.6a1.126,1.126,0,0,1-1.2.252l-.821,8.465L17.557,50.57,6.087,39.1l-.162.129A18.165,18.165,0,0,0,30.3,61.662l2.418,2.418H55.662L40.8,49.219A18.174,18.174,0,0,0,41.324,44.963Z" transform="translate(5917.305 19048.904)" fill="#39b54a"/>
    <path id="Path_46" data-name="Path 46" d="M17.466,45.592a1.126,1.126,0,0,1-.8-.33l-3.378-3.378,1.592-1.592,2.927,2.927,3.885-.972.545,2.184-4.5,1.126A1.125,1.125,0,0,1,17.466,45.592Z" transform="translate(5918.349 19049.381)" fill="#39b54a"/>
    <rect id="Rectangle_17" data-name="Rectangle 17" width="2.252" height="3.184" transform="translate(5928.265 19087.891) rotate(-45)" fill="#39b54a"/>
    <circle id="Ellipse_17" data-name="Ellipse 17" cx="5.629" cy="5.629" r="5.629" transform="translate(5951.013 19068.52)" fill="#39b54a"/>
    <path id="Path_47" data-name="Path 47" d="M30.609,37.289a1.126,1.126,0,0,1,1.369-.173,10.4,10.4,0,0,0,2.687,1.112,1.126,1.126,0,0,1,.844,1.09V43.4h3.377V39.318a1.126,1.126,0,0,1,.844-1.09,10.4,10.4,0,0,0,2.687-1.112,1.126,1.126,0,0,1,1.369.173l2.883,2.883,2.5-2.5-2.884-2.883a1.126,1.126,0,0,1-.173-1.369,10.342,10.342,0,0,0,1.111-2.686,1.126,1.126,0,0,1,1.091-.845H52.4V26.51H48.318a1.126,1.126,0,0,1-1.091-.845,10.341,10.341,0,0,0-1.111-2.686,1.126,1.126,0,0,1,.173-1.369l2.884-2.883-2.5-2.5-2.883,2.883a1.126,1.126,0,0,1-1.369.173,10.4,10.4,0,0,0-2.687-1.112,1.126,1.126,0,0,1-.844-1.09V13H35.51v4.079a1.126,1.126,0,0,1-.844,1.09,10.4,10.4,0,0,0-2.687,1.112,1.126,1.126,0,0,1-1.369-.173l-2.883-2.883-2.5,2.5,2.884,2.883a1.126,1.126,0,0,1,.173,1.369,10.342,10.342,0,0,0-1.111,2.686,1.126,1.126,0,0,1-1.091.845H22v3.377h4.079a1.126,1.126,0,0,1,1.091.845,10.342,10.342,0,0,0,1.111,2.686,1.126,1.126,0,0,1-.173,1.369l-2.884,2.883,2.5,2.5ZM37.2,20.318A7.881,7.881,0,1,1,29.318,28.2,7.881,7.881,0,0,1,37.2,20.318Z" transform="translate(5919.444 19045.947)" fill="#39b54a"/>
    <path id="Path_48" data-name="Path 48" d="M55.787,12.881H55.1a1.126,1.126,0,0,1-1.062-.751,10.679,10.679,0,0,0-19.784-.894,1.126,1.126,0,0,1-1.823.321,10.7,10.7,0,0,0-18.3,7.516v3.94a1.126,1.126,0,0,1-1.126,1.126H9.629a5.629,5.629,0,1,0,0,11.258H27.584l.6-.6a12.568,12.568,0,0,1-.682-1.65H23.139a1.126,1.126,0,0,1-1.126-1.126V26.39a1.126,1.126,0,0,1,1.126-1.126H27.5a12.569,12.569,0,0,1,.682-1.65L25.1,20.528a1.126,1.126,0,0,1,0-1.592l4.095-4.093a1.126,1.126,0,0,1,1.592,0l3.085,3.085a12.812,12.812,0,0,1,1.652-.683V12.881a1.126,1.126,0,0,1,1.126-1.126h5.629A1.126,1.126,0,0,1,43.4,12.881v4.364a12.812,12.812,0,0,1,1.652.683l3.085-3.085a1.126,1.126,0,0,1,1.592,0l4.095,4.093a1.126,1.126,0,0,1,0,1.592l-3.085,3.086a12.567,12.567,0,0,1,.682,1.65h4.364a1.126,1.126,0,0,1,1.126,1.126v5.629a1.126,1.126,0,0,1-1.126,1.126H51.423a12.567,12.567,0,0,1-.682,1.65l.6.6h4.446a11.258,11.258,0,0,0,0-22.516Zm6.755,14.635H60.29V25.265h2.252Zm-2.252-4.5a4.5,4.5,0,0,0-4.5-4.5V16.258a6.762,6.762,0,0,1,6.755,6.755Z" transform="translate(5917.18 19044.941)" fill="#39b54a"/>
  </g>
</svg>
