<?xml version="1.0" ?>
<svg xmlns="http://www.w3.org/2000/svg" width="503.161" height="396.137" viewBox="0 0 503.161 396.137">
  <g id="Component_2_1" data-name="Component 2 – 1" transform="translate(0 3.506)">
    <g id="Group_42" data-name="Group 42" transform="translate(-1321.896 -1333.432)">
      <g id="Group_41" data-name="Group 41">
        <g id="Layer_3" transform="translate(1317.896 1401.938)">
          <path id="Path_25" data-name="Path 25" d="M186.32,40.516V0H91.784V40.516H4V108.6H23.974V324.125H254.123V108.6H274.1V40.516ZM85.031,297.115H58.021V108.042h27.01Zm67.526,0h-27.01V108.042h27.01Zm-40.516-256.6V20.258h54.021V40.516Zm108.042,256.6h-27.01V108.042h27.01Z" transform="translate(0)" fill="#5b4531"/>
        </g>
        <g id="Group_40" data-name="Group 40" transform="translate(78 -34)">
          <g id="Group_39" data-name="Group 39" transform="translate(0 -10)">
            <g id="Arrow">
              <path id="Path_26" data-name="Path 26" d="M99.374,1179.235c134.894,3.009,0,154.44,0,154.44" transform="translate(306.042 1698.371) rotate(-97)" fill="none" stroke="#fff" stroke-width="7"/>
            </g>
            <text id="_inside" data-name="$ inside" transform="matrix(0.819, -0.574, 0.574, 0.819, 1644.743, 1467.559)" fill="#fff" font-size="32" font-family="Webdings"><tspan x="-120" y="0">$ inside</tspan></text>
          </g>
          <g id="Group_15" data-name="Group 15" transform="translate(49 42)">
            <line id="Line_9" data-name="Line 9" x2="15" y2="18" transform="translate(1400 1399)" fill="none" stroke="#fff" stroke-width="4"/>
            <line id="Line_10" data-name="Line 10" y1="14" x2="18" transform="translate(1413 1402)" fill="none" stroke="#fff" stroke-width="4"/>
          </g>
        </g>
      </g>
    </g>
  </g>
</svg>
