<?xml version="1.0" ?><svg id="D_-_5_x2C__money_x2C__transfer_x2C__fund_x2C__analysis" xmlns="http://www.w3.org/2000/svg" width="34.75" height="38.818" viewBox="0 0 34.75 38.818">
  <g id="Group_20" data-name="Group 20">
    <path id="Path_49" data-name="Path 49" d="M111.288,300.968l-.024,0q-.369.05-.751.085l-.09.008q-.176.015-.354.028l-.08.005-.314.018-.082,0q-.184.008-.369.012l-.087,0c-.13,0-.26,0-.391,0s-.26,0-.389,0l-.089,0c-.122,0-.244-.007-.365-.012l-.09,0-.3-.017-.094-.006c-.114-.008-.227-.017-.339-.027l-.112-.01c-.11-.01-.22-.021-.328-.033l-.049-.006q-.169-.019-.335-.042l-.067-.009a10.691,10.691,0,0,1-4.522-1.534,1.248,1.248,0,0,0-.286.766c0,.688.733,1.392,2.011,1.933a10.891,10.891,0,0,0,2.056.617l.159.031.092.017a16.159,16.159,0,0,0,1.684.215l.072.005.277.018.215.011.137.005.214.007.115,0q.166,0,.332,0c.112,0,.222,0,.333,0l.115,0,.214-.007.138-.005.209-.011.285-.018.071-.005a16.259,16.259,0,0,0,1.69-.216l.092-.017.159-.031a10.9,10.9,0,0,0,2.06-.617c1.279-.54,2.012-1.245,2.012-1.932a1.248,1.248,0,0,0-.286-.766A10.729,10.729,0,0,1,111.288,300.968Z" transform="translate(-101.38 -275.685)" fill="#39b54a"/>
    <path id="Path_50" data-name="Path 50" d="M108.744,249.646c-4.34,0-7.365,1.516-7.365,2.877,0,.687.735,1.391,2.016,1.932a11.331,11.331,0,0,0,2.417.686l.049.009.286.047.152.022.133.019.185.024.082.01q.188.022.378.04l.089.008.193.016.131.009.174.012.288.015.123,0,.225.007.11,0q.166,0,.333,0c.112,0,.223,0,.334,0l.111,0,.225-.007.124,0,.288-.015.174-.012.132-.01.192-.016.092-.009q.188-.018.372-.039l.087-.01.183-.023.138-.019.149-.021.29-.047.045-.008a11.359,11.359,0,0,0,2.424-.687c1.282-.541,2.017-1.245,2.017-1.932C116.121,251.162,113.091,249.646,108.744,249.646Zm1.106,4.239a1.505,1.505,0,0,1-.88.383v.462h-.427v-.462a1.4,1.4,0,0,1-.813-.315,1.138,1.138,0,0,1-.4-.743l.746-.079a1,1,0,0,0,.173.349.958.958,0,0,0,.293.2v-1.036a1.646,1.646,0,0,1-.84-.417.961.961,0,0,1-.267-.676.919.919,0,0,1,.307-.687,1.361,1.361,0,0,1,.8-.315v-.236h.427v.236a1.4,1.4,0,0,1,.733.27.926.926,0,0,1,.347.6l-.733.079a.514.514,0,0,0-.347-.394v.957a2,2,0,0,1,.946.417.879.879,0,0,1,.253.653A.992.992,0,0,1,109.85,253.885Z" transform="translate(-101.379 -230.871)" fill="#39b54a"/>
    <path id="Path_51" data-name="Path 51" d="M210.1,73.777a.5.5,0,0,1-.527-.468v-11.7h-5.265v11.7a.5.5,0,0,1-.527.468h-3.052l6.211,6.307,6.211-6.307Z" transform="translate(-189.564 -61.613)" fill="#39b54a"/>
    <path id="Path_52" data-name="Path 52" d="M111.284,358.26l-.024,0q-.369.05-.751.085l-.09.008q-.176.015-.354.028l-.079.005-.316.018-.081,0q-.184.008-.37.012l-.087,0c-.13,0-.26,0-.391,0s-.26,0-.389,0l-.089,0q-.184,0-.366-.012l-.089,0-.3-.017-.094-.006q-.17-.012-.339-.027l-.113-.01c-.109-.01-.218-.021-.325-.033l-.053-.006c-.111-.013-.222-.027-.331-.042l-.07-.01a10.691,10.691,0,0,1-4.521-1.534,1.248,1.248,0,0,0-.286.766c0,.688.733,1.392,2.011,1.933a10.893,10.893,0,0,0,2.057.617l.158.031.093.017a16.187,16.187,0,0,0,1.684.216l.072.005.278.018.214.011.137.005.214.007.115,0c.11,0,.221,0,.332,0s.222,0,.333,0l.115,0,.214-.007.138-.005.215-.011.279-.018.071-.005a16.265,16.265,0,0,0,1.689-.216l.093-.017.159-.031a10.918,10.918,0,0,0,2.06-.618c1.279-.54,2.012-1.245,2.012-1.932a1.248,1.248,0,0,0-.286-.766A10.723,10.723,0,0,1,111.284,358.26Z" transform="translate(-101.376 -327.257)" fill="#39b54a"/>
    <path id="Path_53" data-name="Path 53" d="M289.354,392.27l-.067.009c-.11.015-.22.029-.331.042l-.051.006c-.109.012-.219.023-.33.034l-.112.01q-.169.015-.339.027l-.093.006-.3.017-.09,0q-.182.008-.365.012l-.088,0c-.129,0-.259,0-.389,0s-.243,0-.363,0l-.09,0c-.121,0-.241-.006-.36-.011h0q-.178-.008-.354-.018l-.087-.005q-.177-.011-.352-.026h-.012q-.171-.014-.339-.032l-.082-.009c-.116-.012-.231-.026-.344-.04l-.015,0q-.166-.022-.329-.046l-.07-.01c-.114-.018-.228-.036-.339-.056l-.009,0c-.112-.019-.222-.04-.332-.062l-.046-.009q-.349-.07-.68-.154l-.012,0a11.2,11.2,0,0,1-1.59-.525h0l0,0q-.291-.123-.555-.259l-.059-.03q-.109-.057-.213-.117l-.088-.052-.127-.078c-.053-.033-.1-.067-.155-.1l-.064-.043a1.263,1.263,0,0,0-.292.761c0,1.384,2.962,2.865,7.371,2.865s7.358-1.482,7.358-2.865a1.255,1.255,0,0,0-.289-.763A10.683,10.683,0,0,1,289.354,392.27Z" transform="translate(-259.42 -357.875)" fill="#39b54a"/>
    <path id="Path_54" data-name="Path 54" d="M161.924,264.3a.408.408,0,0,0-.107.259.364.364,0,0,0,.093.248.6.6,0,0,0,.28.18v-.856A.509.509,0,0,0,161.924,264.3Z" transform="translate(-155.025 -243.913)" fill="#39b54a"/>
    <path id="Path_55" data-name="Path 55" d="M168.934,280.825v.957a.605.605,0,0,0,.347-.169.45.45,0,0,0,.147-.327.375.375,0,0,0-.12-.281A.711.711,0,0,0,168.934,280.825Z" transform="translate(-161.342 -258.937)" fill="#39b54a"/>
    <path id="Path_56" data-name="Path 56" d="M111.288,329.614l-.024,0q-.369.05-.751.085l-.09.008q-.176.015-.354.028l-.08.005-.314.018-.082,0c-.122.005-.246.009-.369.012l-.087,0c-.13,0-.26,0-.391,0s-.26,0-.389,0l-.089,0c-.122,0-.244-.007-.365-.012l-.09,0-.3-.017-.094-.006q-.171-.012-.339-.027l-.112-.01c-.11-.01-.22-.021-.328-.033l-.049-.006q-.169-.019-.335-.042l-.067-.009a10.692,10.692,0,0,1-4.522-1.534,1.248,1.248,0,0,0-.286.766c0,.688.733,1.392,2.011,1.933a10.893,10.893,0,0,0,2.057.617l.158.031.093.017a16.187,16.187,0,0,0,1.684.216l.072.005.278.018.214.011.137.005.214.007.115,0c.11,0,.221,0,.332,0s.222,0,.333,0l.115,0,.214-.007.138-.005.215-.011.279-.018.071-.005a16.273,16.273,0,0,0,1.689-.216l.093-.017.159-.031a10.911,10.911,0,0,0,2.06-.618c1.279-.54,2.012-1.245,2.012-1.932a1.248,1.248,0,0,0-.286-.766A10.73,10.73,0,0,1,111.288,329.614Z" transform="translate(-101.38 -301.471)" fill="#39b54a"/>
    <path id="Path_57" data-name="Path 57" d="M111.286,415.552l-.025,0q-.369.05-.75.085l-.091.008c-.117.01-.235.02-.353.028l-.081.005-.314.018-.082,0c-.122.005-.246.009-.369.012l-.087,0c-.13,0-.26,0-.391,0s-.26,0-.389,0l-.089,0c-.122,0-.244-.007-.365-.012l-.09,0-.3-.017-.094-.006q-.171-.012-.339-.027l-.112-.01c-.11-.01-.219-.021-.327-.033l-.051-.006q-.168-.019-.334-.042l-.067-.009a10.69,10.69,0,0,1-4.522-1.534,1.248,1.248,0,0,0-.286.766c0,.688.733,1.392,2.011,1.932a15.862,15.862,0,0,0,10.719,0c1.279-.54,2.012-1.245,2.012-1.932a1.248,1.248,0,0,0-.286-.766A10.723,10.723,0,0,1,111.286,415.552Z" transform="translate(-101.378 -378.828)" fill="#39b54a"/>
    <path id="Path_58" data-name="Path 58" d="M289.353,363.623l-.067.009c-.11.015-.22.029-.331.042l-.051.006c-.109.012-.219.023-.33.034l-.112.01q-.169.015-.339.027l-.093.006-.3.017-.09,0q-.182.008-.365.012l-.088,0c-.129,0-.259,0-.389,0s-.243,0-.364,0l-.09,0q-.181,0-.36-.011h0c-.119,0-.237-.011-.355-.018l-.086-.005c-.118-.008-.236-.016-.353-.026h-.01c-.115-.01-.228-.021-.342-.032l-.08-.008q-.174-.019-.346-.04l-.011,0q-.169-.022-.335-.047l-.066-.01c-.115-.018-.23-.036-.343-.056h0c-.114-.02-.227-.041-.338-.064l-.041-.008q-.351-.071-.686-.155l-.006,0a11.165,11.165,0,0,1-1.593-.526h0q-.293-.124-.558-.261l-.057-.029q-.109-.058-.214-.118l-.087-.051-.129-.079q-.079-.049-.154-.1l-.065-.044a1.263,1.263,0,0,0-.292.761,1.567,1.567,0,0,0,.637,1.127l.069.059.043.035a11.009,11.009,0,0,0,6,1.634l.127,0,.153,0c.113,0,.227,0,.342,0s.228,0,.341,0l.154,0,.122,0c2.642-.09,5-.755,6.124-1.745a1.552,1.552,0,0,0,.617-1.11,1.255,1.255,0,0,0-.289-.763A10.683,10.683,0,0,1,289.353,363.623Z" transform="translate(-259.419 -332.089)" fill="#39b54a"/>
    <path id="Path_59" data-name="Path 59" d="M281.442,284.68c-1.281.541-2.015,1.245-2.015,1.932s.735,1.392,2.015,1.932a14.213,14.213,0,0,0,5.356.933c4.344,0,7.371-1.51,7.371-2.865s-3.027-2.865-7.371-2.865A14.208,14.208,0,0,0,281.442,284.68Zm6.3.232a1.038,1.038,0,0,1,.359.6l-.746.079a.514.514,0,0,0-.346-.394v.968a2.013,2.013,0,0,1,.959.417.914.914,0,0,1,.253.653,1.029,1.029,0,0,1-.32.754,1.538,1.538,0,0,1-.892.372v.462h-.426v-.451a1.522,1.522,0,0,1-.812-.315,1.2,1.2,0,0,1-.4-.755l.759-.068a.705.705,0,0,0,.173.338.773.773,0,0,0,.28.2v-1.025a1.691,1.691,0,0,1-.826-.428.89.89,0,0,1-.266-.676.866.866,0,0,1,.293-.676,1.29,1.29,0,0,1,.8-.315v-.248h.426v.248A1.272,1.272,0,0,1,287.744,284.912Z" transform="translate(-259.419 -261.567)" fill="#39b54a"/>
    <path id="Path_60" data-name="Path 60" d="M111.285,386.907l-.024,0q-.369.05-.751.085l-.09.008q-.176.015-.354.028l-.079.005-.316.018-.081,0q-.184.008-.37.012l-.087,0c-.13,0-.26,0-.391,0s-.26,0-.389,0l-.089,0q-.184,0-.366-.012l-.089,0-.3-.017-.093-.006q-.171-.012-.34-.027l-.111-.01c-.11-.01-.22-.021-.329-.034l-.048-.005c-.113-.013-.225-.027-.336-.042l-.066-.009a10.692,10.692,0,0,1-4.522-1.534,1.249,1.249,0,0,0-.286.766c0,.688.733,1.392,2.011,1.932a10.9,10.9,0,0,0,2.057.618l.157.031.094.018a16.188,16.188,0,0,0,1.684.216l.072.005.278.018.214.011.137.005.214.007.115,0q.166,0,.332,0c.112,0,.222,0,.333,0l.115,0,.214-.007.138-.005.215-.011.279-.018.071-.005a16.231,16.231,0,0,0,1.689-.216l.093-.017.159-.031a10.916,10.916,0,0,0,2.06-.618c1.279-.54,2.012-1.245,2.012-1.932a1.248,1.248,0,0,0-.286-.766A10.725,10.725,0,0,1,111.285,386.907Z" transform="translate(-101.377 -353.043)" fill="#39b54a"/>
    <path id="Path_61" data-name="Path 61" d="M286.8,335.165a13.084,13.084,0,0,1-7.079-1.712,1.262,1.262,0,0,0-.292.76,1.567,1.567,0,0,0,.637,1.127l.069.059.043.035a11.01,11.01,0,0,0,6,1.634l.127,0,.152,0c.113,0,.227,0,.342,0s.228,0,.341,0l.154,0,.122,0c2.642-.09,5-.755,6.124-1.745a1.553,1.553,0,0,0,.617-1.11,1.255,1.255,0,0,0-.288-.763A13.04,13.04,0,0,1,286.8,335.165Z" transform="translate(-259.419 -306.308)" fill="#39b54a"/>
    <path id="Path_62" data-name="Path 62" d="M339.917,298.29a.371.371,0,0,0-.013.507.655.655,0,0,0,.28.18v-.856A.567.567,0,0,0,339.917,298.29Z" transform="translate(-313.017 -274.506)" fill="#39b54a"/>
    <path id="Path_63" data-name="Path 63" d="M346.92,315.779a.738.738,0,0,0,.36-.18.412.412,0,0,0,.133-.315.4.4,0,0,0-.12-.293.744.744,0,0,0-.373-.18v.969Z" transform="translate(-319.328 -289.53)" fill="#39b54a"/>
    <rect id="Rectangle_18" data-name="Rectangle 18" width="2.106" height="1.871" transform="translate(3.265 2.339)" fill="#39b54a"/>
    <rect id="Rectangle_19" data-name="Rectangle 19" width="2.106" height="1.871" transform="translate(3.265 5.146)" fill="#39b54a"/>
    <rect id="Rectangle_20" data-name="Rectangle 20" width="2.106" height="1.871" transform="translate(3.265 7.953)" fill="#39b54a"/>
    <rect id="Rectangle_21" data-name="Rectangle 21" width="2.106" height="1.871" transform="translate(3.265 10.76)" fill="#39b54a"/>
    <rect id="Rectangle_22" data-name="Rectangle 22" width="2.106" height="1.871" transform="translate(26.431 7.953)" fill="#39b54a"/>
    <rect id="Rectangle_23" data-name="Rectangle 23" width="2.106" height="1.871" transform="translate(26.431 10.76)" fill="#39b54a"/>
    <rect id="Rectangle_24" data-name="Rectangle 24" width="2.106" height="1.871" transform="translate(26.431 13.567)" fill="#39b54a"/>
    <rect id="Rectangle_25" data-name="Rectangle 25" width="2.106" height="1.871" transform="translate(26.431 16.374)" fill="#39b54a"/>
  </g>
</svg>
