<svg xmlns="http://www.w3.org/2000/svg" width="55.542" height="62.044" viewBox="0 0 55.542 62.044">
  <g id="Group_130" data-name="Group 130" transform="translate(-5919.32 -19107.222)">
    <path id="Path_49" data-name="Path 49" d="M117.216,301.888l-.038.005q-.59.08-1.2.137l-.145.013q-.281.025-.565.044l-.128.008c-.167.011-.334.02-.5.028l-.132.006q-.293.013-.59.02l-.14,0c-.207,0-.415.007-.625.007s-.416,0-.622-.007l-.142,0c-.2,0-.391-.011-.584-.02l-.144-.007q-.24-.012-.478-.027l-.15-.009c-.182-.013-.363-.027-.542-.043l-.179-.016c-.176-.017-.351-.034-.525-.053l-.079-.009q-.27-.031-.536-.067l-.106-.015a17.088,17.088,0,0,1-7.228-2.452,2,2,0,0,0-.457,1.224c0,1.1,1.171,2.225,3.214,3.089a17.407,17.407,0,0,0,3.287.987l.254.05.148.028a25.835,25.835,0,0,0,2.692.344l.116.009q.22.016.443.028l.344.018.218.008.342.011.183,0q.265,0,.531.005c.178,0,.355,0,.532-.005l.184,0,.342-.011.22-.008c.112,0,.224-.011.335-.017.153-.009.3-.018.455-.029l.113-.008a26,26,0,0,0,2.7-.345l.147-.027.255-.05a17.426,17.426,0,0,0,3.293-.987c2.044-.863,3.216-1.989,3.216-3.089a1.994,1.994,0,0,0-.457-1.224A17.149,17.149,0,0,1,117.216,301.888Z" transform="translate(5817.941 18845.744)" fill="#39b54a"/>
    <path id="Path_50" data-name="Path 50" d="M113.15,249.646c-6.937,0-11.771,2.423-11.771,4.6,0,1.1,1.174,2.224,3.222,3.089a18.114,18.114,0,0,0,3.863,1.1l.079.014q.227.039.457.074l.244.035.213.03.3.038.131.015q.3.035.6.064l.142.013.309.025.209.015.279.019q.229.014.46.024l.2.007.359.011.176,0q.265.005.532.005c.179,0,.356,0,.533-.005l.177,0,.36-.011.2-.007q.231-.01.461-.024l.278-.018.211-.015.308-.025.147-.014q.3-.028.6-.063l.139-.016.292-.037.221-.031.237-.034c.155-.024.31-.049.463-.075l.072-.013a18.16,18.16,0,0,0,3.875-1.1c2.049-.864,3.224-1.99,3.224-3.089C124.942,252.069,120.1,249.646,113.15,249.646Zm1.768,6.776a2.406,2.406,0,0,1-1.406.612v.738h-.682v-.738a2.243,2.243,0,0,1-1.3-.5,1.819,1.819,0,0,1-.639-1.188l1.193-.126a1.6,1.6,0,0,0,.277.558,1.531,1.531,0,0,0,.469.324v-1.656a2.632,2.632,0,0,1-1.342-.666,1.536,1.536,0,0,1-.426-1.08,1.468,1.468,0,0,1,.49-1.1,2.176,2.176,0,0,1,1.278-.5v-.378h.682v.378a2.244,2.244,0,0,1,1.172.432,1.48,1.48,0,0,1,.554.954l-1.172.126a.822.822,0,0,0-.554-.63v1.53a3.2,3.2,0,0,1,1.513.666,1.4,1.4,0,0,1,.4,1.044A1.586,1.586,0,0,1,114.918,256.422Z" transform="translate(5817.941 18887.586)" fill="#39b54a"/>
    <path id="Path_51" data-name="Path 51" d="M215.7,81.055a.8.8,0,0,1-.842-.748V61.613h-8.416V80.307a.8.8,0,0,1-.842.748h-4.878l9.927,10.081,9.927-10.081Z" transform="translate(5736.437 19045.609)" fill="#39b54a"/>
    <path id="Path_52" data-name="Path 52" d="M117.212,359.18l-.038.005q-.59.08-1.2.137l-.144.013q-.281.025-.566.044l-.127.008q-.251.016-.5.028l-.13.006q-.294.013-.591.02l-.14,0c-.207,0-.415.007-.625.007s-.416,0-.622-.007l-.142,0q-.294-.007-.585-.02l-.143-.007q-.24-.012-.479-.027l-.15-.009q-.272-.019-.541-.043l-.181-.017c-.174-.016-.348-.034-.52-.053l-.085-.01q-.267-.031-.529-.066l-.112-.015a17.088,17.088,0,0,1-7.225-2.452,1.994,1.994,0,0,0-.457,1.224c0,1.1,1.171,2.225,3.214,3.089a17.409,17.409,0,0,0,3.287.987l.252.049.149.028a25.864,25.864,0,0,0,2.692.345l.115.008q.221.016.445.029l.342.018.219.008.342.01.183,0c.176,0,.353.005.531.005s.355,0,.532-.005l.184,0,.342-.01.22-.008.344-.018q.224-.013.446-.028l.114-.008a26,26,0,0,0,2.7-.345l.148-.028.254-.049a17.446,17.446,0,0,0,3.293-.987c2.044-.863,3.216-1.989,3.216-3.089a2,2,0,0,0-.457-1.224A17.138,17.138,0,0,1,117.212,359.18Z" transform="translate(5817.944 18797.596)" fill="#39b54a"/>
    <path id="Path_53" data-name="Path 53" d="M295.293,393.186l-.107.015c-.175.023-.351.046-.529.066l-.081.009c-.174.02-.35.037-.527.054l-.179.017q-.269.023-.542.042l-.148.009q-.238.015-.479.027l-.144.007q-.29.012-.584.019l-.141,0c-.206,0-.413.007-.622.007s-.388,0-.581-.006l-.144,0c-.193,0-.385-.01-.576-.018h0q-.285-.012-.566-.03l-.139-.009q-.283-.018-.563-.041l-.019,0q-.273-.023-.542-.051l-.131-.014c-.185-.02-.369-.041-.55-.064l-.024,0q-.265-.035-.526-.074l-.112-.017c-.183-.028-.364-.057-.543-.089l-.015,0c-.179-.031-.355-.065-.53-.1l-.073-.015q-.557-.112-1.087-.246l-.019,0a17.9,17.9,0,0,1-2.541-.839l-.006,0-.007,0q-.465-.2-.887-.414l-.094-.048q-.174-.092-.34-.187l-.141-.083q-.1-.062-.2-.125c-.085-.053-.167-.107-.248-.161-.034-.023-.069-.046-.1-.069a2.019,2.019,0,0,0-.467,1.216c0,2.212,4.734,4.58,11.782,4.58s11.76-2.368,11.76-4.58a2.006,2.006,0,0,0-.461-1.22A17.075,17.075,0,0,1,295.293,393.186Z" transform="translate(5671.872 18769.012)" fill="#39b54a"/>
    <path id="Path_55" data-name="Path 55" d="M168.934,280.825v1.53a.968.968,0,0,0,.554-.27.72.72,0,0,0,.234-.522.6.6,0,0,0-.192-.45A1.137,1.137,0,0,0,168.934,280.825Z" transform="translate(5762.521 18861.381)" fill="#39b54a"/>
    <path id="Path_56" data-name="Path 56" d="M117.216,330.534l-.038.005q-.59.08-1.2.137l-.145.013q-.281.025-.565.044l-.128.008q-.25.016-.5.028l-.132.006c-.2.009-.393.015-.59.02l-.14,0c-.207,0-.415.007-.625.007s-.416,0-.622-.007l-.142,0c-.2,0-.391-.011-.584-.02l-.144-.007q-.24-.011-.478-.027l-.15-.009c-.182-.013-.363-.027-.542-.043l-.179-.016c-.176-.017-.351-.034-.525-.054l-.079-.009q-.27-.031-.536-.067l-.106-.014a17.089,17.089,0,0,1-7.228-2.452,2,2,0,0,0-.457,1.224c0,1.1,1.171,2.225,3.214,3.089a17.409,17.409,0,0,0,3.287.987l.252.049.149.028a25.865,25.865,0,0,0,2.692.345l.115.008q.221.016.445.028l.342.018.219.008.342.01.183,0c.176,0,.353.005.531.005s.355,0,.532-.005l.184,0,.342-.01.22-.008.344-.018q.224-.012.446-.028l.114-.008a26,26,0,0,0,2.7-.345l.148-.028.254-.049a17.436,17.436,0,0,0,3.293-.987c2.044-.863,3.216-1.989,3.216-3.089a2,2,0,0,0-.457-1.224A17.151,17.151,0,0,1,117.216,330.534Z" transform="translate(5817.941 18821.672)" fill="#39b54a"/>
    <path id="Path_57" data-name="Path 57" d="M117.215,416.472l-.039.005q-.589.08-1.2.136l-.145.013c-.187.016-.375.031-.565.044l-.129.008q-.25.016-.5.028l-.132.006c-.2.008-.393.015-.59.02l-.14,0c-.207,0-.415.007-.625.007s-.416,0-.622-.007l-.142,0c-.2,0-.391-.011-.584-.02l-.144-.007c-.16-.008-.319-.017-.478-.027l-.15-.009q-.273-.019-.542-.043l-.179-.016c-.176-.016-.35-.034-.523-.053l-.081-.009q-.269-.031-.534-.067l-.108-.015a17.087,17.087,0,0,1-7.227-2.452,2,2,0,0,0-.457,1.224c0,1.1,1.171,2.225,3.214,3.089a25.352,25.352,0,0,0,17.133,0c2.044-.863,3.216-1.989,3.216-3.089a2,2,0,0,0-.457-1.224A17.139,17.139,0,0,1,117.215,416.472Z" transform="translate(5817.942 18749.447)" fill="#39b54a"/>
    <path id="Path_58" data-name="Path 58" d="M295.292,364.54l-.107.015c-.175.023-.351.046-.529.066l-.081.009c-.174.02-.35.037-.527.054l-.179.016q-.269.023-.542.042l-.148.009q-.238.015-.479.027l-.144.007q-.29.012-.584.019l-.141,0c-.206,0-.413.007-.622.007s-.388,0-.581-.006l-.144,0q-.289-.007-.576-.018h0c-.191-.008-.379-.018-.568-.03l-.137-.009c-.189-.012-.378-.026-.565-.042h-.016c-.183-.016-.365-.033-.546-.052l-.127-.013q-.279-.03-.553-.065l-.017,0q-.27-.035-.535-.075l-.105-.016c-.184-.028-.367-.058-.548-.09h-.006c-.182-.032-.362-.066-.541-.1l-.066-.013q-.561-.113-1.1-.248l-.01,0a17.839,17.839,0,0,1-2.547-.841h0l0,0q-.468-.2-.893-.417l-.091-.047q-.175-.092-.342-.188l-.139-.082c-.07-.042-.138-.084-.206-.126q-.126-.079-.246-.16c-.034-.023-.07-.046-.1-.07a2.019,2.019,0,0,0-.467,1.216,2.505,2.505,0,0,0,1.019,1.8c.036.031.073.063.111.094l.069.055c1.87,1.484,5.517,2.473,9.59,2.612l.2.007.244.005c.181,0,.362.006.546.006s.364,0,.544-.006l.246-.006.2-.006c4.223-.144,7.992-1.206,9.788-2.789a2.481,2.481,0,0,0,.987-1.774,2.006,2.006,0,0,0-.461-1.22A17.075,17.075,0,0,1,295.292,364.54Z" transform="translate(5671.872 18793.084)" fill="#39b54a"/>
    <path id="Path_59" data-name="Path 59" d="M282.648,285.238c-2.047.864-3.221,1.99-3.221,3.089s1.174,2.224,3.221,3.089a22.718,22.718,0,0,0,8.561,1.491c6.943,0,11.782-2.414,11.782-4.58s-4.838-4.58-11.782-4.58A22.709,22.709,0,0,0,282.648,285.238Zm10.072.371a1.659,1.659,0,0,1,.575.954l-1.192.126a.821.821,0,0,0-.554-.63v1.548a3.218,3.218,0,0,1,1.533.666,1.461,1.461,0,0,1,.4,1.044,1.644,1.644,0,0,1-.511,1.206,2.458,2.458,0,0,1-1.426.594v.738h-.681v-.72a2.432,2.432,0,0,1-1.3-.5,1.911,1.911,0,0,1-.639-1.206l1.213-.108a1.128,1.128,0,0,0,.277.54,1.235,1.235,0,0,0,.447.324v-1.638a2.7,2.7,0,0,1-1.32-.684,1.422,1.422,0,0,1-.426-1.08,1.385,1.385,0,0,1,.468-1.08,2.062,2.062,0,0,1,1.277-.5v-.4h.681v.4A2.032,2.032,0,0,1,292.72,285.609Z" transform="translate(5671.872 18858.928)" fill="#39b54a"/>
    <path id="Path_60" data-name="Path 60" d="M117.213,387.826l-.038.005q-.59.08-1.2.137l-.144.013q-.281.025-.566.044l-.127.008q-.251.016-.5.028l-.13.006q-.294.012-.591.02l-.14,0c-.207,0-.415.007-.625.007s-.416,0-.622-.007l-.142,0q-.294-.007-.585-.02l-.142-.007q-.242-.012-.481-.027l-.148-.009c-.182-.012-.363-.027-.543-.043l-.177-.016c-.177-.017-.352-.034-.526-.054l-.077-.009c-.18-.021-.359-.044-.536-.067l-.106-.014a17.09,17.09,0,0,1-7.228-2.453,2,2,0,0,0-.457,1.224c0,1.1,1.171,2.225,3.214,3.089a17.429,17.429,0,0,0,3.288.987l.251.049.15.028a25.887,25.887,0,0,0,2.691.345l.115.008q.221.016.444.028l.343.018.219.008.342.011.183,0c.176,0,.353.005.531.005s.355,0,.532-.005l.184,0,.342-.011.22-.008.344-.018q.224-.013.446-.029l.114-.008a25.951,25.951,0,0,0,2.7-.345l.148-.027.254-.05a17.449,17.449,0,0,0,3.293-.987c2.044-.863,3.216-1.989,3.216-3.089a2,2,0,0,0-.457-1.224A17.142,17.142,0,0,1,117.213,387.826Z" transform="translate(5817.943 18773.521)" fill="#39b54a"/>
    <path id="Path_61" data-name="Path 61" d="M291.208,336.191c-4.656,0-8.875-1.034-11.314-2.737a2.016,2.016,0,0,0-.467,1.215,2.505,2.505,0,0,0,1.019,1.8c.036.031.073.063.111.094l.069.056c1.87,1.484,5.517,2.472,9.59,2.612l.2.006.244.006c.181,0,.362.006.546.006s.364,0,.544-.006l.246-.006.2-.006c4.223-.144,7.992-1.206,9.788-2.789a2.482,2.482,0,0,0,.987-1.774,2.006,2.006,0,0,0-.461-1.219C300.071,335.155,295.857,336.191,291.208,336.191Z" transform="translate(5671.872 18817.156)" fill="#39b54a"/>
    <path id="Path_62" data-name="Path 62" d="M339.98,298.391a.593.593,0,0,0-.021.81,1.046,1.046,0,0,0,.447.288v-1.368A.908.908,0,0,0,339.98,298.391Z" transform="translate(5622.334 18846.846)" fill="#39b54a"/>
    <path id="Path_63" data-name="Path 63" d="M346.92,316.359a1.179,1.179,0,0,0,.575-.288.659.659,0,0,0,.213-.5.639.639,0,0,0-.192-.468,1.189,1.189,0,0,0-.6-.288v1.548Z" transform="translate(5616.501 18832.82)" fill="#39b54a"/>
    <rect id="Rectangle_22" data-name="Rectangle 22" width="3.366" height="2.991" transform="translate(5961.566 19119.934)" fill="#39b54a"/>
    <rect id="Rectangle_23" data-name="Rectangle 23" width="3.366" height="2.991" transform="translate(5961.566 19124.42)" fill="#39b54a"/>
    <rect id="Rectangle_24" data-name="Rectangle 24" width="3.366" height="2.991" transform="translate(5961.566 19128.906)" fill="#39b54a"/>
    <rect id="Rectangle_25" data-name="Rectangle 25" width="3.366" height="2.991" transform="translate(5961.566 19133.395)" fill="#39b54a"/>
  </g>
</svg>
