<?xml version="1.0" ?>
<svg id="Component_1_1" data-name="Component 1 – 1" xmlns="http://www.w3.org/2000/svg" width="735.997" height="295.248" viewBox="0 0 735.997 295.248">
  <path id="cloud2" d="M72.5,35.25A21.773,21.773,0,0,1,94.244,56.68c-.018.241-.032.485-.032.68a7.255,7.255,0,0,0,5.82,7.108A10.873,10.873,0,0,1,97.873,86H20.4a7.04,7.04,0,0,0-1.066-.262A14.468,14.468,0,0,1,21.749,57,7.25,7.25,0,0,0,29,49.749a7.259,7.259,0,0,1,7.25-7.25,7.172,7.172,0,0,1,5.922,3.1A7.254,7.254,0,0,0,48.1,48.681h.163a7.266,7.266,0,0,0,5.948-3.345A21.635,21.635,0,0,1,72.5,35.25m0-7.25A28.915,28.915,0,0,0,48.1,41.43a14.484,14.484,0,0,0-26.351,8.319,21.717,21.717,0,0,0-3.625,43.135v.364H97.873a18.124,18.124,0,0,0,3.59-35.888c0-.124.035-.237.035-.361a29,29,0,0,0-29-29Z" transform="translate(430 52)" fill="#546e7a"/>
  <path id="cloud2-2" data-name="cloud2" d="M72.5,35.25A21.773,21.773,0,0,1,94.244,56.68c-.018.241-.032.485-.032.68a7.255,7.255,0,0,0,5.82,7.108A10.873,10.873,0,0,1,97.873,86H20.4a7.04,7.04,0,0,0-1.066-.262A14.468,14.468,0,0,1,21.749,57,7.25,7.25,0,0,0,29,49.749a7.259,7.259,0,0,1,7.25-7.25,7.172,7.172,0,0,1,5.922,3.1A7.254,7.254,0,0,0,48.1,48.681h.163a7.266,7.266,0,0,0,5.948-3.345A21.635,21.635,0,0,1,72.5,35.25m0-7.25A28.915,28.915,0,0,0,48.1,41.43a14.484,14.484,0,0,0-26.351,8.319,21.717,21.717,0,0,0-3.625,43.135v.364H97.873a18.124,18.124,0,0,0,3.59-35.888c0-.124.035-.237.035-.361a29,29,0,0,0-29-29Z" transform="translate(620 142)" fill="#546e7a"/>
  <path id="cloud2-3" data-name="cloud2" d="M72.5,35.25A21.773,21.773,0,0,1,94.244,56.68c-.018.241-.032.485-.032.68a7.255,7.255,0,0,0,5.82,7.108A10.873,10.873,0,0,1,97.873,86H20.4a7.04,7.04,0,0,0-1.066-.262A14.468,14.468,0,0,1,21.749,57,7.25,7.25,0,0,0,29,49.749a7.259,7.259,0,0,1,7.25-7.25,7.172,7.172,0,0,1,5.922,3.1A7.254,7.254,0,0,0,48.1,48.681h.163a7.266,7.266,0,0,0,5.948-3.345A21.635,21.635,0,0,1,72.5,35.25m0-7.25A28.915,28.915,0,0,0,48.1,41.43a14.484,14.484,0,0,0-26.351,8.319,21.717,21.717,0,0,0-3.625,43.135v.364H97.873a18.124,18.124,0,0,0,3.59-35.888c0-.124.035-.237.035-.361a29,29,0,0,0-29-29Z" transform="translate(620 -28)" fill="#546e7a"/>
  <path id="cloud2-4" data-name="cloud2" d="M72.5,35.25A21.773,21.773,0,0,1,94.244,56.68c-.018.241-.032.485-.032.68a7.255,7.255,0,0,0,5.82,7.108A10.873,10.873,0,0,1,97.873,86H20.4a7.04,7.04,0,0,0-1.066-.262A14.468,14.468,0,0,1,21.749,57,7.25,7.25,0,0,0,29,49.749a7.259,7.259,0,0,1,7.25-7.25,7.172,7.172,0,0,1,5.922,3.1A7.254,7.254,0,0,0,48.1,48.681h.163a7.266,7.266,0,0,0,5.948-3.345A21.635,21.635,0,0,1,72.5,35.25m0-7.25A28.915,28.915,0,0,0,48.1,41.43a14.484,14.484,0,0,0-26.351,8.319,21.717,21.717,0,0,0-3.625,43.135v.364H97.873a18.124,18.124,0,0,0,3.59-35.888c0-.124.035-.237.035-.361a29,29,0,0,0-29-29Z" transform="translate(0 52)" fill="#546e7a"/>
  <path id="cloud2-5" data-name="cloud2" d="M72.5,35.25A21.773,21.773,0,0,1,94.244,56.68c-.018.241-.032.485-.032.68a7.255,7.255,0,0,0,5.82,7.108A10.873,10.873,0,0,1,97.873,86H20.4a7.04,7.04,0,0,0-1.066-.262A14.468,14.468,0,0,1,21.749,57,7.25,7.25,0,0,0,29,49.749a7.259,7.259,0,0,1,7.25-7.25,7.172,7.172,0,0,1,5.922,3.1A7.254,7.254,0,0,0,48.1,48.681h.163a7.266,7.266,0,0,0,5.948-3.345A21.635,21.635,0,0,1,72.5,35.25m0-7.25A28.915,28.915,0,0,0,48.1,41.43a14.484,14.484,0,0,0-26.351,8.319,21.717,21.717,0,0,0-3.625,43.135v.364H97.873a18.124,18.124,0,0,0,3.59-35.888c0-.124.035-.237.035-.361a29,29,0,0,0-29-29Z" transform="translate(50 202)" fill="#546e7a"/>
  <path id="cloud2-6" data-name="cloud2" d="M72.5,35.25A21.773,21.773,0,0,1,94.244,56.68c-.018.241-.032.485-.032.68a7.255,7.255,0,0,0,5.82,7.108A10.873,10.873,0,0,1,97.873,86H20.4a7.04,7.04,0,0,0-1.066-.262A14.468,14.468,0,0,1,21.749,57,7.25,7.25,0,0,0,29,49.749a7.259,7.259,0,0,1,7.25-7.25,7.172,7.172,0,0,1,5.922,3.1A7.254,7.254,0,0,0,48.1,48.681h.163a7.266,7.266,0,0,0,5.948-3.345A21.635,21.635,0,0,1,72.5,35.25m0-7.25A28.915,28.915,0,0,0,48.1,41.43a14.484,14.484,0,0,0-26.351,8.319,21.717,21.717,0,0,0-3.625,43.135v.364H97.873a18.124,18.124,0,0,0,3.59-35.888c0-.124.035-.237.035-.361a29,29,0,0,0-29-29Z" transform="translate(207 52)" fill="#546e7a"/>
</svg>
