<?xml version="1.0" ?><svg id="register" xmlns="http://www.w3.org/2000/svg" width="34.559" height="27.647" viewBox="0 0 34.559 27.647">
  <path id="Path_33" data-name="Path 33" d="M18.027,23.786c-1.795-.629-3.654-.706-4.2-2.355v-2.3a6.022,6.022,0,0,0,2.156-3.4,12.056,12.056,0,0,0,.164-1.754,19.7,19.7,0,0,1,.879-6.741c-.314-1.564-1.136-2.882-2.9-3.056C13.654,3.4,12.447,3,10.877,3,4.6,3.108,3.956,7.462,5.216,12.462a1.349,1.349,0,0,0-.546,1.38c.189,1.478.829,1.852,1.237,1.883a6.016,6.016,0,0,0,2.156,3.4v2.3C6.912,24.887,0,21.431,0,30.647H13.823A7.149,7.149,0,0,1,18.027,23.786Z" transform="translate(0 -3)" fill="#39b54a"/>
  <g id="Group_18" data-name="Group 18" transform="translate(16.127 1.152)">
    <path id="Path_34" data-name="Path 34" d="M14,30.495c0-5.76,5.76-4.608,6.912-7.726V21.3c-4.171,0-5.329-1.718-5.329-1.718,2.179-1.813-1.942-14.43,5.479-14.43A3.5,3.5,0,0,1,23.358,4c9.073,0,4.979,13.7,7.325,15.626,0,0-.972,1.659-5.164,1.659v1.484c1.152,3.118,6.912,1.966,6.912,7.726Z" transform="translate(-14 -4)" fill="#39b54a"/>
  </g>
</svg>
