<svg xmlns="http://www.w3.org/2000/svg" width="91.89" height="73.513" viewBox="0 0 91.89 73.513">
  <g id="Group_124" data-name="Group 124" transform="translate(-5925.82 -18809.898)">
    <path id="Path_33" data-name="Path 33" d="M47.933,58.269c-4.772-1.672-9.716-1.878-11.177-6.261V45.882c1.378-.683,5.317-5.376,5.734-9.042a32.057,32.057,0,0,0,.435-4.665c0-3.826-.058-11.734,2.337-17.925-.836-4.16-3.02-7.664-7.7-8.126C36.306,4.051,33.1,3,28.921,3c-16.7.288-18.4,11.863-15.052,25.159a3.586,3.586,0,0,0-1.452,3.669c.5,3.93,2.205,4.925,3.29,5.008.414,3.669,4.356,8.362,5.734,9.045v6.126C18.378,61.2,0,52.008,0,76.512H36.756C36.756,65.645,42.851,60.961,47.933,58.269Z" transform="translate(5925.82 18806.898)" fill="#39b54a"/>
    <path id="Path_34" data-name="Path 34" d="M14,74.449C14,59.134,29.315,62.2,32.378,53.905V50c-11.091,0-14.169-4.567-14.169-4.567,5.8-4.821-5.164-38.37,14.568-38.37,0,0,2.665-3.063,6.108-3.063C63.008,4,52.122,40.428,58.361,45.55c0,0-2.585,4.411-13.731,4.411v3.945c3.063,8.292,18.378,5.229,18.378,20.544Z" transform="translate(5954.703 18808.963)" fill="#39b54a"/>
  </g>
</svg>
