<svg xmlns="http://www.w3.org/2000/svg" width="76.611" height="75.227" viewBox="0 0 76.611 75.227">
  <g id="Group_128" data-name="Group 128" transform="translate(-5921.179 -18989.863)">
    <circle id="Ellipse_16" data-name="Ellipse 16" cx="8.343" cy="8.343" r="8.343" transform="translate(5972.483 18989.863)" fill="#39b54a"/>
    <path id="Path_41" data-name="Path 41" d="M4,20.045H23.667a9.124,9.124,0,0,0,6.993-3.5L31.971,14.8" transform="translate(5917.179 19022.713)" fill="none" stroke="#39b54a" stroke-miterlimit="10" stroke-width="2"/>
    <path id="Path_42" data-name="Path 42" d="M7,14.1S16.178,9.727,20.985,7.1c2.185-.874,4.37-1.311,6.556-.437l5.682,1.748,7.43,3.5a8.576,8.576,0,0,1,3.933,3.933l3.5,6.993a8.256,8.256,0,0,0,7.867,4.807H68.623" transform="translate(5929.167 18998.607)" fill="none" stroke="#39b54a" stroke-miterlimit="10" stroke-width="2"/>
    <path id="Path_43" data-name="Path 43" d="M21.708,7,11.219,25.356a9.432,9.432,0,0,0,2.185,11.8L30.449,49.393,25.2,36.719s-3.5.437-2.622-.874L35.256,13.119Z" transform="translate(5938.492 18998.803)" fill="#39b54a"/>
    <path id="Path_44" data-name="Path 44" d="M22.663,33.515l-8.3,21.852h9.178l7.43-18.793c1.748-4.807.874-10.489-3.059-13.985L17.419,12.1,11.3,18.219,21.789,28.708A3.99,3.99,0,0,1,22.663,33.515Z" transform="translate(5942.888 19009.723)" fill="#39b54a"/>
  </g>
</svg>
