<?xml version="1.0" ?><svg id="running" xmlns="http://www.w3.org/2000/svg" width="33.62" height="38.358" viewBox="0 0 33.62 38.358">
  <circle id="Ellipse_16" data-name="Ellipse 16" cx="3.661" cy="3.661" r="3.661" transform="translate(22.514)" fill="#39b54a"/>
  <path id="Path_41" data-name="Path 41" d="M4,17.1h8.631A4,4,0,0,0,15.7,15.567l.575-.767" transform="translate(-4 9.749)" fill="none" stroke="#39b54a" stroke-miterlimit="10" stroke-width="2"/>
  <path id="Path_42" data-name="Path 42" d="M7,9.66s4.028-1.918,6.137-3.069A3.763,3.763,0,0,1,16.014,6.4l2.493.767L21.768,8.7a3.763,3.763,0,0,1,1.726,1.726L25.028,13.5a3.623,3.623,0,0,0,3.452,2.11h5.562" transform="translate(-0.423 1.847)" fill="none" stroke="#39b54a" stroke-miterlimit="10" stroke-width="2"/>
  <path id="Path_43" data-name="Path 43" d="M15.153,7l-4.6,8.055a4.139,4.139,0,0,0,.959,5.178l7.48,5.37-2.3-5.562s-1.534.192-1.151-.384L21.1,9.685Z" transform="translate(1.971 2.589)" fill="#39b54a"/>
  <path id="Path_44" data-name="Path 44" d="M16.287,21.5l-3.644,9.589H16.67l3.26-8.247A5.622,5.622,0,0,0,18.588,16.7l-4.6-4.6L11.3,14.785l4.6,4.6A1.751,1.751,0,0,1,16.287,21.5Z" transform="translate(3.185 7.271)" fill="#39b54a"/>
</svg>
