<?xml version="1.0" ?><svg xmlns="http://www.w3.org/2000/svg" width="352.495" height="318.678" viewBox="0 0 352.495 318.678">
  <g id="Layer_9" data-name="Layer 9" transform="translate(-2.957 -3.024)">
    <path id="Path_27" data-name="Path 27" d="M76.438,6h0C56.314,6,40,20.766,40,38.98h72.876C112.876,20.766,96.562,6,76.438,6Z" transform="translate(17.614 13.383)" fill="#4d773b"/>
    <path id="Path_28" data-name="Path 28" d="M45.073,23.993h72.876a5.806,5.806,0,0,0,6.073-5.5,5.806,5.806,0,0,0-6.073-5.5H45.073A5.806,5.806,0,0,0,39,18.5,5.806,5.806,0,0,0,45.073,23.993Z" transform="translate(12.541 44.86)" fill="#4d773b"/>
    <path id="Path_29" data-name="Path 29" d="M124.417,52.364a13.136,13.136,0,0,0,6.073-1.484,6.457,6.457,0,0,1,8.077,1.814,12.855,12.855,0,0,0,20.527,0,6.251,6.251,0,0,1,5.1-2.528,6.573,6.573,0,0,1,2.976.715,13.172,13.172,0,0,0,13.953-1.133,10.328,10.328,0,0,0,3.492-12.28A12.2,12.2,0,0,0,173,30.377a12.609,12.609,0,0,0-4.13.715,6.6,6.6,0,0,1-5.619-.824,5.308,5.308,0,0,1-2.4-4.673V24.88c0-6.071-5.438-10.993-12.146-10.993s-12.146,4.922-12.146,10.993v.879a5.309,5.309,0,0,1-2.43,4.736,6.6,6.6,0,0,1-5.708.76,12.54,12.54,0,0,0-4.008-.879c-6.708,0-12.146,4.922-12.146,10.993S117.709,52.364,124.417,52.364Zm-23.745-6.376a19.288,19.288,0,0,1-.547-4.617c.077-9.777,7.279-18.333,17.672-21-2.413-10.123-12.3-17.349-23.745-17.349S72.72,10.25,70.307,20.373c10.394,2.664,17.6,11.22,17.672,21a19.289,19.289,0,0,1-.547,4.617A28.363,28.363,0,0,0,100.672,45.987ZM15.1,52.364a13.136,13.136,0,0,0,6.073-1.484,6.457,6.457,0,0,1,8.077,1.814,12.855,12.855,0,0,0,20.527,0,6.251,6.251,0,0,1,5.1-2.528,6.573,6.573,0,0,1,2.976.715,13.171,13.171,0,0,0,13.953-1.133A10.328,10.328,0,0,0,75.3,37.466a12.2,12.2,0,0,0-11.615-7.09,12.609,12.609,0,0,0-4.13.715,6.6,6.6,0,0,1-5.708-.76,5.309,5.309,0,0,1-2.43-4.736l.121-.715c0-6.071-5.438-10.993-12.146-10.993S27.249,18.809,27.249,24.88v.879a5.31,5.31,0,0,1-2.429,4.727,6.6,6.6,0,0,1-5.709.77,12.54,12.54,0,0,0-4.008-.879C8.4,30.377,2.957,35.3,2.957,41.37S8.4,52.364,15.1,52.364Z" transform="translate(170.044 0)" fill="#4d773b"/>
    <path id="Path_30" data-name="Path 30" d="M8.27,29H40.032l33.4,32.98H8.27Z" transform="translate(249.754 116.808)" fill="#4d773b"/>
    <ellipse id="Ellipse_13" data-name="Ellipse 13" cx="24.292" cy="21.987" rx="24.292" ry="21.987" transform="translate(251.951 255.742)" fill="#4d773b"/>
    <rect id="Rectangle_13" data-name="Rectangle 13" width="12.146" height="10.993" transform="translate(343.046 255.742)" fill="#4d773b"/>
    <rect id="Rectangle_14" data-name="Rectangle 14" width="352.235" height="10.993" transform="translate(2.957 310.709)" fill="#4d773b"/>
    <ellipse id="Ellipse_14" data-name="Ellipse 14" cx="24.292" cy="21.987" rx="24.292" ry="21.987" transform="translate(57.614 255.742)" fill="#4d773b"/>
    <rect id="Rectangle_15" data-name="Rectangle 15" width="24.292" height="32.98" transform="translate(221.586 145.808)" fill="#4d773b"/>
    <path id="Path_31" data-name="Path 31" d="M63.73,65.47V36.448a10.857,10.857,0,0,1-6.073-9.454V16h72.876V26.993a10.857,10.857,0,0,1-6.073,9.454V65.47H267.54l11.114,10.993h-63.1a5.806,5.806,0,0,0-6.073,5.5v43.974a5.806,5.806,0,0,0,6.073,5.5h121.46c10.062,0,18.219,7.383,18.219,16.49V186.4H337.016a5.806,5.806,0,0,0-6.073,5.5v16.49H310.6c-5.182-13.122-18.916-21.881-34.313-21.881s-29.131,8.759-34.313,21.881H116.262C111.08,195.262,97.345,186.5,81.949,186.5s-29.131,8.759-34.313,21.881H3V65.47Zm151.825,87.947h24.292V142.424H215.555ZM112.314,37.987H75.876V65.47h36.438ZM15.146,169.908a5.806,5.806,0,0,0,6.073,5.5H191.263a5.806,5.806,0,0,0,6.073-5.5V81.96a5.806,5.806,0,0,0-6.073-5.5H21.219a5.806,5.806,0,0,0-6.073,5.5Z" transform="translate(-0.043 58.35)" fill="#4d773b"/>
    <path id="Path_32" data-name="Path 32" d="M188.9,105.954H31V29H188.9ZM103.876,94.96h12.146V83.967H103.876Zm-60.73,0H91.73V83.967H43.146Zm97.168-32.98H43.146V72.974h97.168Z" transform="translate(-3.751 116.808)" fill="#4d773b"/>
  </g>
</svg>
