<?xml version="1.0" ?><svg xmlns="http://www.w3.org/2000/svg" width="82" height="82" viewBox="0 0 82 82">
  <g id="twitter" transform="translate(-0.068)">
    <circle id="Ellipse_20" data-name="Ellipse 20" cx="41" cy="41" r="41" transform="translate(0.068)" fill="#1cb7eb"/>
    <g id="Group_28" data-name="Group 28" transform="translate(18.636 21.885)">
      <g id="Group_27" data-name="Group 27">
        <path id="Path_68" data-name="Path 68" d="M55.182,17.245a13.706,13.706,0,0,1-5.129,1.539,9.527,9.527,0,0,0,3.932-5.3,19.779,19.779,0,0,1-5.813,2.394,8.727,8.727,0,0,0-6.5-3.078c-4.958,0-9.062,4.274-9.062,9.746a9.749,9.749,0,0,0,.171,2.223A25.026,25.026,0,0,1,14.149,14.681a9.277,9.277,0,0,0-1.2,4.958,9.726,9.726,0,0,0,3.932,8.036,8.232,8.232,0,0,1-4.1-1.2v.171a9.8,9.8,0,0,0,7.181,9.575,10.091,10.091,0,0,1-2.394.342,5.816,5.816,0,0,1-1.71-.171,8.888,8.888,0,0,0,8.378,6.668,17.46,17.46,0,0,1-11.113,4.1,10.516,10.516,0,0,1-2.223-.171A24.291,24.291,0,0,0,24.749,51.44c16.585,0,25.646-14.7,25.646-27.527v-1.2A20.427,20.427,0,0,0,55.182,17.245Z" transform="translate(-10.9 -12.8)" fill="#fff"/>
      </g>
    </g>
  </g>
</svg>
